<svg id="Layer_1" data-name="Layer 1" xmlns="http://www.w3.org/2000/svg" viewBox="0 0 200 200"><path d="M127.76,6.52C76.34-7.71,28.76,19.18,10.53,61.66,4.28,73.67,2.68,94.5,2.68,94.5A126.25,126.25,0,0,1,26.74,60.72C29.37,58.11,36.93,49.06,48.8,44.8a.5.5,0,0,0,0,.12,41.46,41.46,0,0,0,1.6,5.78,25.34,25.34,0,0,0,2.7,5.23,24.63,24.63,0,0,1-.79-5.6,37.73,37.73,0,0,1,.38-5.54c.22-1.52.52-3,.88-4.48C55.39,36.07,59,28.92,64.44,25c8-5.77,11.93-6.09,13.93-4.33s2.41,7.85,1.93,13.22a55.85,55.85,0,0,1-.87,5.85c-.42,1.56-.9,3.11-1.46,4.63a39,39,0,0,1-2.35,5A24.43,24.43,0,0,1,72.22,54a25.45,25.45,0,0,0,4.89-3.27,41.66,41.66,0,0,0,4.2-4.3c.71-.85,1.4-1.74,2.06-2.65A33,33,0,0,1,93,45.29c5.53,2.09,10.65,4.25,19.22,11.14,0,0-1.67-2.31-3.33-4.5a7.34,7.34,0,0,1-.75-7.52c1-2.48,7.21-13.85,18.82-14.09,0,0,3.37,2.72,2.65,9.37s-2.81,11.21-5,14.33c-1,1.33-2.12,2.87-3.15,4.21a4.41,4.41,0,0,0,.47,5.91c2.7,2.56,7.53,7,8.9,10.7,0,0-1.41,7-7.5,15.23s-12.5,11.05-12.5,11.05,13.64-1.55,22.27-12.65c8.42-10.84,18.25-22,17.46-50.63,0,0,6.3,7.8,6.09,29.05s-2,27.77-2.24,30.76,1.7,6.19,1.17,11.43c-.38,3.76-.82,8.9-1,11.5a3.41,3.41,0,0,0,1.06,2.76l4.21,4a6.77,6.77,0,0,1,1.58,7.62l-7.06,16.4a9.35,9.35,0,0,1-5.71,5.21c-7.3,2.38-23.45,6.92-40.24,6.92-22.75,0-33.64-6-41.55-11.54,0,0,6.41,8.87,25.74,14.53,7.29,2.13,16.41,3.17,24.93,3.64,8.24.45,9.9,11.9,2.12,14.66a58.63,58.63,0,0,1-16.9,3.38c-24,1.06-36.31-.22-59.92-13.25A82,82,0,0,1,21,156.8a97.19,97.19,0,0,0,79,40.52c62.28,0,110.9-58.51,93.89-123.57A94.62,94.62,0,0,0,127.76,6.52Z"/><path d="M132.67,142.7s6.76-9.46-1.79-11.58c-6.84-1.7-19.29,11.21-19.29,11.21S130.68,132.19,132.67,142.7Z"/><path d="M66.83,96.55s-1.24,7.88,2.49,11.2,11.2,2.07,13.28.41A23.28,23.28,0,0,1,66.83,96.55Z"/></svg>