<svg id="Layer_1" data-name="Layer 1" xmlns="http://www.w3.org/2000/svg" xmlns:xlink="http://www.w3.org/1999/xlink" viewBox="0 0 650 650"><defs><style>.cls-1{fill:url(#linear-gradient);}.cls-2{fill:url(#linear-gradient-2);}.cls-3{fill:#bebebe;}.cls-4{fill:#828282;}.cls-5{fill:url(#linear-gradient-3);}.cls-6{fill:#eaeaea;}.cls-7{fill:#fff;}.cls-8{fill:url(#linear-gradient-4);}.cls-9{fill:url(#linear-gradient-5);}.cls-10{fill:url(#radial-gradient);}.cls-11{fill:#4f4f4f;}.cls-12{fill:#212121;}.cls-13,.cls-15{fill:none;}.cls-13{stroke:#eaeaea;stroke-miterlimit:10;stroke-width:4px;}.cls-14{fill:url(#linear-gradient-6);}.cls-15{stroke:#000;stroke-linejoin:round;stroke-width:2px;}</style><linearGradient id="linear-gradient" x1="195.17" y1="184.78" x2="304.64" y2="184.78" gradientUnits="userSpaceOnUse"><stop offset="0.1" stop-color="#4f4f4f"/><stop offset="1" stop-color="#212121"/></linearGradient><linearGradient id="linear-gradient-2" x1="158.52" y1="257.75" x2="141.61" y2="173.19" gradientUnits="userSpaceOnUse"><stop offset="0" stop-color="#212121"/><stop offset="0.9" stop-color="#4f4f4f"/></linearGradient><linearGradient id="linear-gradient-3" x1="75.7" y1="265.05" x2="185.73" y2="265.05" gradientUnits="userSpaceOnUse"><stop offset="0" stop-color="red"/><stop offset="1" stop-color="#ff7f00"/></linearGradient><linearGradient id="linear-gradient-4" x1="304.4" y1="188.02" x2="310.62" y2="188.02" xlink:href="#linear-gradient-3"/><linearGradient id="linear-gradient-5" x1="47.26" y1="288.54" x2="36.86" y2="175.72" xlink:href="#linear-gradient-2"/><radialGradient id="radial-gradient" cx="16.55" cy="235.28" r="49.7" gradientTransform="matrix(0, 1, -0.17, 0, 57.4, 218.55)" gradientUnits="userSpaceOnUse"><stop offset="0" stop-color="#fff"/><stop offset="0.8" stop-color="#4e4b4c"/><stop offset="1"/></radialGradient><linearGradient id="linear-gradient-6" x1="212.76" y1="253.82" x2="247.11" y2="253.82" xlink:href="#linear-gradient-3"/></defs><path class="cls-1" d="M198.39,163l-3.22-38.18a3.82,3.82,0,0,1,1.93-1.93c1.29-.43,27.88-5.36,27.88-5.36a9.67,9.67,0,0,1,6.44,1.29c2.79,1.93,67.35,43.32,67.35,43.32s4.72,2.68,5.36,10.14.48,69.33.48,69.33.7,4.72-4.82,6.59-34.11,4-34.11,4-5,.1-7.07-4.35l-20.76-13.24Z"/><path class="cls-2" d="M59.83,186.12l20.59-3.22s1.93,0,2.79,2.79,4.93.64,4.93.64l44.4-7.72s-.86-2.58.22-3.65a7.14,7.14,0,0,1,3-1.5l82.36-13.94s12,6.22,16.3,22.31,6,25.73,5.36,35.81a154.19,154.19,0,0,1-1.93,17L104.87,259s-9.22,1.72-9.65,3-.21,3-1.28,3.86-24.46,5.15-24.46,5.15Z"/><path class="cls-3" d="M263,134.42s16.08-34.1,25.74-47,30.88-20.59,41.18-18.66,15.76,5.79,15.76,5.79,13.19-37.1,15.44-41.18,20.92-10,30.25-11.58c0,0-20.27,13.51-21.88,16.41S364,79.41,364,83c0,0,8,5.79,31.21,20.27s51,40.76,56.46,49.7l1.77,2.1s19.3,7.39,50.19,27.66,58.87,34.75,63.7,42.47,26.06,93.62,26.06,101.34a6.29,6.29,0,0,1-.32,2.26s25.09,24.45,31.53,36,12.7,76,11.58,82.36c-.32,1.82-1.5,4.72-3.32,9s-7,13.51-7,13.51,15.45,11.58,18,31.53-9.65,69.49-17.37,77.86-50.19,20.59-58.56,22.52-51.47-3.86-60.48-5.79L500.38,594l-75.28,6.27-23.49,20.59L365.22,633a42.14,42.14,0,0,1-30.43-20.44c-11.23-18.89-5.85-35.05-2.33-44.28,2.87-7.51,16-23.22,34.62-21.71,0,0-.11,0,.64-1a14.86,14.86,0,0,1,3.54-2.36S359,539.37,355.07,538a62.12,62.12,0,0,1-8.47-4c-9-5.87-20.92-22.84-28.54-36.89l-1.71-3.65L269.57,523.8s-8.68,5.36-22.23,3.6c-14.92-1.93-35.39-19.63-31.8-31.51l39.26-43.17L269,443.28l12.44-21-5.82-4.91c-9.63-9.09-23.95-23.34-37.66-37.4l-2.42-2.3s-3.43,3-6,3.43-20.59-12-20.59-12-4.67,3.59-6.76,5a9.16,9.16,0,0,1-4.82,1.39c-7.72,0-17.59,3.86-20.59,7.3s-5.15,12.44-12,4.29-6.44-24.45-6-35.61,8-13.08,8-13.08-3.7-2.9-3.54-5.47S164,327.46,166,326s-12.39-41.5-12.39-41.5l-6.92-29.6,18.5-26.86s37.81-6.12,38.45-6.28S215.89,238,215.89,238l19.23,8.08,11.58-5.79,11.91,7.56s2.09,4.83,7.07,4.35,34.11-4,34.11-4,4.82-1.93,4.82-6.59-.16-65.47-.48-69.33-.64-5.47-4-8.37-38.77-26.22-38.77-26.22Z"/><path class="cls-4" d="M280.8,478.09c4.7,11,4.14,26.22-1.44,36.34-6,10.93-19.27,13.94-32,13-15-1.14-35.39-19.63-31.8-31.51l33.9-15.29Z"/><path class="cls-5" d="M185.73,319.74s-3.21,9.65-10.93,10.29-50.84-30.88-99.1-130c0,0,29.82,31.95,55.13,45.9,0,0,2,6.7,19.84,14.26a2,2,0,0,0,.64,2.89c1.77,1.29,2.9,2.58,2.9,4.83s-.65,6.6,4.34,14.32S185.73,319.74,185.73,319.74Z"/><path class="cls-4" d="M365.22,633a42.14,42.14,0,0,1-30.43-20.44c-11.23-18.89-5.85-35.05-2.33-44.28,2.87-7.51,16-23.22,34.62-21.71,0,0,15.55,35.89,12.12,50.26S365.22,633,365.22,633Z"/><path class="cls-6" d="M145,211.64a37.69,37.69,0,0,1,21.45-18.45,29.72,29.72,0,0,1,27.45,3.86s6.44,19.31,2.58,36c0,0-6.44,15.87-33.46,7.72C163,240.81,151,228.37,145,211.64Z"/><path class="cls-6" d="M196,207.35s9.44-7.29,16.73-1.72c0,0,7.72,17.16,2.14,32.18,0,0-13.29,6.43-18.44-4.72"/><path class="cls-6" d="M148,218.5S133.4,224.08,130.83,246c0,0,3.43,6.86,19.73,14.15,0,0,14.58-2.14,12.44-19.3"/><path class="cls-6" d="M357.77,594.63l0-7.27a8.35,8.35,0,0,1,5.35-7.74l29.11-11.22a8.35,8.35,0,0,1,10,3.23,52.59,52.59,0,0,1,7.78,22.1,37.2,37.2,0,0,1-4.17,22.93,8.32,8.32,0,0,1-11.32,3.24L362.09,602A8.34,8.34,0,0,1,357.77,594.63Z"/><path class="cls-6" d="M393.52,568S389.84,551.1,374.84,544a5.8,5.8,0,0,0-6.68,1.25c-4.31,4.52-11,14.19-14,21.91s5,16.09,5,16.09"/><path class="cls-6" d="M252.18,496.85c-2.22.73-3.32,1.08-5.45,1.75-2.52.78-5.77-.49-8.33-3-7.55-7.29-15.11-14.47-23.27-21.1-2.95-2.43-4.29-5.76-3-8.36,1.73-3.52,5.57-8.87,13.53-14.31a30.85,30.85,0,0,1,21.09-5.49c4.36.55,7.81,5.08,7.83,9.7,0,11.68.36,23.36,1.12,35C255.88,493.82,254.52,496.08,252.18,496.85Z"/><path class="cls-6" d="M254.36,453.55c10.12-2.11,20.91,5.09,26.59,12.74,1.71,2.3,2.52,5.26,1.6,7.5-2.25,5.45-7.31,15.62-13.6,19,0,0-7.16,2.26-13.39-1.89"/><path class="cls-6" d="M212.24,471.92s-8.5,4.17-3.89,15.33a15.16,15.16,0,0,0,3.77,5.1c3.88,3.36,11.3,8.62,16.91,10.49s10.87-6,10.87-6"/><path class="cls-6" d="M405.47,617.66s10.3-4.19,11.48-19.52c1.29-16.77-6.3-28.08-12.44-32.17-3.86-2.58-4.72.42-13.73,3"/><path class="cls-6" d="M401.61,564.25s-4.5-10.62-9-15.76l-19-4.4,14.8,25.31Z"/><path class="cls-6" d="M378.13,638.68s18.44-2.58,23.16-18.24l-6.43-1.93S394.43,631.17,378.13,638.68Z"/><path class="cls-6" d="M362.09,602c-5.53,3.87-5.75,12.06-5.75,12.06,1,7.84,8.07,17.87,12,22.89a6.55,6.55,0,0,0,6.82,2.29c18.27-4.74,19.41-19.32,19.41-19.32Z"/><path class="cls-3" d="M340.08,71.69c0-3.54,3.86-41.82,5.47-44.72s21.88-16.4,21.88-16.4c-9.33,1.6-27.67,7.72-30.24,11.58s-14.72,41.28-17,47.07Z"/><path class="cls-4" d="M391.32,21.82S403.81,44.06,402.79,48c-4.72,18.23-14.27,10.87-22.3,23.38-1.93,3-6.67,10.63-9.55,15.33L364,83s1.18-22.2,2.57-29.6,2.9-15.12,2.9-15.12Z"/><path class="cls-4" d="M367.43,10.57s4.6,8.19,8,15.5L363.33,31l-2.58,3.22-14.47,41-6.2-3.54L343.7,36l1.85-9,2.82-3.38Z"/><path class="cls-7" d="M316.41,176.46s1.34,8.69-.48,14.11-4.88,8.63-7.4,10.08a9.83,9.83,0,0,1-3.76,1.5l-.37-5.74,5-7,1.18-10.84Z"/><path class="cls-8" d="M304.4,197.05a13,13,0,0,0,4.75-5.8c1.79-4.36,1.57-9.32,1.25-12.27l-5.63,2Z"/><path class="cls-4" d="M438.4,391.59c-13.73,5.79-115.29,37.64-120.87,39.57l-3.43,15Z"/><path class="cls-4" d="M300.27,338.61s0-8.58,8.58-9.86,9.86-4.29,22.73-16.73,54.27-38.61,54.27-38.61l16.51-27.67L381.13,270s-38.39,23.16-51.91,35.6S311.85,320,305,320.6,293.62,327,291.9,332.39Z"/><path class="cls-4" d="M593,328.75s-1.5,3.86-11.15,8.58-62,28.31-62,28.31,58.12-19.95,65.2-23.38a34.63,34.63,0,0,0,11.58-9.65Z"/><path class="cls-4" d="M625.69,469c-7.11,11.11-17.8,24.51-30.08,33.14-23.81,16.73-122.25,47-144.77,50.83-11.7,2-35.87-.93-58.22-5.39,0,0,7.06,10,8.19,17.13A125.2,125.2,0,0,0,455.18,566c29.76-5.95,122.91-36,141.4-50,20.11-15.28,31.2-32.65,35.87-39.73Z"/><path class="cls-4" d="M316.35,493.47s-5.79-10.3-6-15.12-.32-10.62,2.25-23,4.88-24.19,4.88-24.19-7,2.47-10.51,3.43-5.3,1.13-8.36.17c0,0-3.54,21.07-2.9,34.26s10.94,30.24,10.94,30.24Z"/><polygon class="cls-4" points="500.38 594.01 468.1 582.48 488.16 595.35 500.38 594.01"/><path class="cls-9" d="M9.78,181.66l36.5-6.34c13.31-1.68,18.85,21,22.6,50.58s4.26,55-9,56.66l-36.5,6.35"/><ellipse class="cls-10" cx="16.55" cy="235.28" rx="8.44" ry="54.05" transform="translate(-29.37 3.93) rotate(-7.2)"/><path class="cls-11" d="M304.13,173.35c-.48-7.07.8-7.07-15.44-18-13.62-9.17-46.79-30-57.29-36.36a9.76,9.76,0,0,0-6.86-1.25L197,122.85a2.35,2.35,0,0,0-1,4.17l50.68,35.72c7.88,7.88,7.28,16.06,7.28,16.06s-.2-5.55,4.94-7.7L299,168.31S303.49,169.81,304.13,173.35Z"/><polygon class="cls-12" points="249.33 165.31 255.33 169.28 258.87 171.1 255.23 173.25 253.83 175.71 252.12 170.35 249.33 165.31"/><path class="cls-12" d="M297.91,168.31c.32,0,3.75,1.5,3.75,1.5l2.47,2.79-.54-3.64-1.18-3.33-2.3-1.77.16,2.42Z"/><path class="cls-11" d="M224.63,133.45v4.08l14.06,9.15a3.93,3.93,0,0,0,2.77.56l9.24-1.42v-5.08"/><path class="cls-11" d="M272.71,151.2v4.85c0,2.43-4,4.4-8.9,4.4s-8.9-2-8.9-4.4v-4.5"/><path class="cls-11" d="M289.36,202.45l-5.6-3.33a3.28,3.28,0,0,0-2.15-.52c-6.35.79-10.77,3.8-10.36,13.47a3.35,3.35,0,0,0,1.06,2.3l5.87,6.12"/><path class="cls-12" d="M241.46,143.32a4,4,0,0,1-2.77-.57l-13.94-9a.63.63,0,0,1,.3-1.14l8.26-1.4a3.19,3.19,0,0,1,2.06.34c2.65,1.46,10.11,5.73,14.85,8.54a1,1,0,0,1-.42,1.85Z"/><ellipse class="cls-12" cx="263.81" cy="151.55" rx="8.9" ry="4.4"/><path class="cls-12" d="M295.44,212.51c0,6.11-5.13,10.33-10.79,10.33S275,218.62,275,212.51s4.58-11.07,10.24-11.07S295.44,206.4,295.44,212.51Z"/><path class="cls-6" d="M212.76,263.87a417.29,417.29,0,0,0,32,33.27,203.68,203.68,0,0,0,17.71,14.71c6.23,4.58,12.56,9,18.91,13.48s12.74,8.85,19,13.5c3.12,2.32,6.2,4.73,9.13,7.34a53.29,53.29,0,0,1,4.2,4.17c1.28,1.48,2.53,3,3.72,4.54a57.54,57.54,0,0,1,10.47,20.84,62.35,62.35,0,0,1,1.3,23.16,61.88,61.88,0,0,0-2-23,56.47,56.47,0,0,0-10.92-20.11q-1.83-2.22-3.8-4.33a49.58,49.58,0,0,0-4.17-3.89c-2.94-2.45-6.05-4.73-9.23-6.93-6.34-4.4-12.85-8.59-19.35-12.84s-13-8.5-19.4-12.9a205.48,205.48,0,0,1-18.53-14.41,422.14,422.14,0,0,1-33.54-32.68Z"/><path class="cls-13" d="M165.57,327.46a13.21,13.21,0,0,0,10.94,3.65c6.87-.86,9.22-6.22,10.08-9.66"/><path class="cls-4" d="M189,335.18s-4.4,4.18-8.9,5.58-10.08,1-13.73-2.47c0,0-4.5,1.5-6.65,7.51,0,0,3.43,3.74,11.8,1.82C185.52,344.4,184.34,340.33,189,335.18Z"/><path class="cls-4" d="M289.57,277a24.69,24.69,0,0,1,1.41-6.7,17.71,17.71,0,0,1,3.59-6.14,10.66,10.66,0,0,1,1.45-1.3,12.12,12.12,0,0,1,1.74-1,7.92,7.92,0,0,1,4.05-.58,9.54,9.54,0,0,1,6.18,3.64,19.71,19.71,0,0,0-6.19-.5,7.16,7.16,0,0,0-2.34.83,11.1,11.1,0,0,0-2,1.7,44.86,44.86,0,0,0-3.7,4.83A40.83,40.83,0,0,1,289.57,277Z"/><path class="cls-4" d="M270.8,318c2.91-3.61,5.84-7.15,8.83-10.67s6-7,9.23-10.37c.8-.85,1.62-1.68,2.47-2.49.41-.42.88-.81,1.32-1.21a14.11,14.11,0,0,0,1.17-1.09,17.53,17.53,0,0,0,3.35-5.56,49.75,49.75,0,0,0,3-13.27,50.33,50.33,0,0,1-1.61,13.76,19.52,19.52,0,0,1-3.05,6.53c-.35.49-.87,1-1.2,1.39s-.74.8-1.09,1.24c-.72.86-1.42,1.75-2.11,2.65-2.75,3.6-5.35,7.36-7.92,11.14s-5.08,7.61-7.53,11.44Z"/><path class="cls-4" d="M453.41,155s.64,10.5-11.58,35.6L429.6,215.71s20.59-22.09,29.6-57.48Z"/><path class="cls-14" d="M246.7,240.27a30.34,30.34,0,0,1-12.71-3.7c-.75-.42-1.57-.91-2.43-1.43l-15.45,3.32a4.17,4.17,0,0,1,.19,3.1c-.81,3.7-3.54,23.81-3.54,23.81l6.27,6.91s5.79,1.61,11.91-3.86,12.06-13.19,14.64-20.1S246.7,240.27,246.7,240.27Z"/><path class="cls-15" d="M261.34,137.32s17.69-37,27.35-49.87,30.88-20.59,41.18-18.66,15.76,5.79,15.76,5.79l.38.31c4.72-13.73,13.07-38.5,15.06-41.49,2.58-3.86,20.92-10,30.25-11.58,0,0-20.27,13.51-21.88,16.41S364,79.41,364,83c0,0,8,5.79,31.21,20.27s52.72,42.85,58.23,51.8"/><path d="M328.26,98.71c1.95-1.63,3.85-3.33,5.68-5.1a67.91,67.91,0,0,0,5.22-5.52,30.28,30.28,0,0,0,2.21-3,11.81,11.81,0,0,0,1.43-3.37l2.25-7.28,1.89.65-2.73,7.17a13.48,13.48,0,0,1-1.8,3.52,30.21,30.21,0,0,1-2.5,3A71.14,71.14,0,0,1,334.28,94C332.32,95.63,330.32,97.21,328.26,98.71Z"/><path class="cls-15" d="M391.32,21.82S403.81,44.06,402.79,48c-4.72,18.23-14.27,10.87-22.3,23.38-1.93,3-6.67,10.63-9.55,15.33"/><path class="cls-15" d="M453.41,155s19.3,7.39,50.19,27.66,58.87,34.75,63.7,42.47,26.06,93.62,26.06,101.34a4.51,4.51,0,0,1-.49,2"/><path class="cls-15" d="M145,211.64a37.69,37.69,0,0,1,21.45-18.45,29.72,29.72,0,0,1,27.45,3.86s6.44,19.31,2.58,36c0,0-6.44,15.87-33.46,7.72C163,240.81,151,228.37,145,211.64Z"/><path class="cls-15" d="M196,207.35s9.44-7.29,16.73-1.72c0,0,7.72,17.16,2.14,32.18,0,0-13.29,6.43-18.44-4.72"/><path class="cls-15" d="M148,218.5S133.4,224.08,130.83,246c0,0,3.43,6.86,19.73,14.15,0,0,14.58-2.14,12.44-19.3"/><path class="cls-15" d="M214.9,237.81s2.79.21,1.29,5.14-3.65,22.52-3.65,22.52"/><path class="cls-15" d="M212.54,265.47s25.53,26.81,46.55,44,45,28.74,56.62,42.9"/><path class="cls-15" d="M185.73,319.74s-3.21,9.65-10.93,10.29-50.84-30.88-99.1-130c0,0,29.82,31.95,55.13,45.9"/><path class="cls-15" d="M246.78,241c1.67,7.88-13.27,32.79-27.64,31.28"/><path class="cls-15" d="M260.21,170.81,297,168.47a6.94,6.94,0,0,1,7.49,6.61l.07,66.23a6.94,6.94,0,0,1-6.4,7.22l-32.38,3.86a6.92,6.92,0,0,1-7.38-5.83l-4.43-67.76A6.93,6.93,0,0,1,260.21,170.81Z"/><path class="cls-15" d="M253.93,178.8s.6-8.18-7.28-16.06L196,127a2.35,2.35,0,0,1,1-4.17l27.55-5.12A9.76,9.76,0,0,1,231.4,119c10.5,6.34,43.67,27.19,57.29,36.36,16.24,10.94,15,10.94,15.44,18"/><path class="cls-15" d="M241.46,143.32a4,4,0,0,1-2.77-.57l-13.94-9a.63.63,0,0,1,.3-1.14l8.26-1.4a3.19,3.19,0,0,1,2.06.34c2.65,1.46,10.11,5.73,14.85,8.54a1,1,0,0,1-.42,1.85Z"/><path class="cls-15" d="M250.7,140.74v5.08l-9.24,1.42a3.93,3.93,0,0,1-2.77-.56l-14.06-9.15v-4.08"/><polygon points="303.8 179.79 326.22 172.6 304.89 182.58 303.8 179.79"/><path class="cls-15" d="M316.35,176.25s1.94,9.44-1.07,16.73-10.61,9.33-10.61,9.33"/><path class="cls-15" d="M304.56,196.73a11.81,11.81,0,0,0,4.59-5.48c1.79-4.36,1.57-9.32,1.25-12.27l-5.63,2Z"/><line class="cls-15" x1="258.69" y1="248.07" x2="236.89" y2="234.05"/><path class="cls-15" d="M135.79,176.25c.28,1.14-.55,1.93-1.7,2.19l-48.36,8.45a1.79,1.79,0,0,1-2.22-1.31l-.73-1.45c-.35-1.06-2.61-1.34-3.69-1L60.42,185.9"/><path class="cls-15" d="M216.8,238.88c.58-.1,20-4.37,20.33-4.86,1.65-2.56,4.13-9.53.51-37.18-3.55-27.09-15.56-35.3-18.6-37a2.13,2.13,0,0,0-1.38-.24l-83.79,14.42"/><path class="cls-15" d="M107.88,258.61l-10,2.33c-1.13.26-2.57.83-2.65,2.66l-.08.91c-.24,1.43-1.69,1.64-2.82,1.9l-22.6,4.91"/><path class="cls-15" d="M9.78,181.66l36.5-6.34c13.31-1.68,18.85,21,22.6,50.58s4.26,55-9,56.66l-36.5,6.35"/><ellipse class="cls-15" cx="16.55" cy="235.28" rx="8.44" ry="54.05" transform="translate(-29.37 3.93) rotate(-7.2)"/><path d="M165.47,326.82a9.14,9.14,0,0,0-.89,4.47,6.21,6.21,0,0,0,.86,4,10.73,10.73,0,0,0,3,3.16,11,11,0,0,0,4,1.65,14.82,14.82,0,0,0,4.46,0,20.53,20.53,0,0,0,4.38-1.22,27.22,27.22,0,0,0,4.07-2.14,38.37,38.37,0,0,0,4.28-2.18,20.74,20.74,0,0,1-3.18,3.85,28.59,28.59,0,0,1-4.42,2.32,22.69,22.69,0,0,1-4.84,1.35,17.1,17.1,0,0,1-5.1,0,13,13,0,0,1-4.8-2,12.65,12.65,0,0,1-3.55-3.8,8.45,8.45,0,0,1-1.14-5.22A8.08,8.08,0,0,1,165.47,326.82Z"/><path class="cls-15" d="M166.75,338.4s-7.61,1.93-8,13.08-.86,27.46,6,35.61,9-.86,12-4.29,12.87-7.3,20.59-7.3,20.59-16.3,20.59-16.3"/><path d="M271.15,318.28q4.25-5.44,8.59-10.79c2.91-3.56,5.85-7.09,8.94-10.51.78-.85,1.56-1.7,2.37-2.52s1.7-1.61,2.44-2.41a20,20,0,0,0,3.46-5.79A53.32,53.32,0,0,0,300.27,273a53.33,53.33,0,0,1-2.86,13.47,20.44,20.44,0,0,1-3.36,6.09c-.79.92-1.6,1.67-2.36,2.52s-1.52,1.7-2.26,2.58c-2.94,3.5-5.74,7.13-8.51,10.78s-5.49,7.34-8.16,11.06Z"/><path d="M289.12,278.13a51.94,51.94,0,0,1,1.89-7.36,25.44,25.44,0,0,1,3.47-6.93,10.62,10.62,0,0,1,3-2.77,6.27,6.27,0,0,1,4.19-.75c2.83.56,4.78,2.51,6.29,4.51a29.87,29.87,0,0,0-3.17-2,8.7,8.7,0,0,0-3.31-1c-2.2-.14-4.06,1.3-5.44,3.19a36.53,36.53,0,0,0-3.62,6.3C291.37,273.6,290.37,275.91,289.12,278.13Z"/><path class="cls-15" d="M208.9,369.07s18,12.44,20.59,12,6-3.43,6-3.43"/><path class="cls-15" d="M317.64,431.06s-10.29,38-6.43,50.83S333.73,525.64,346.6,534s81.72,22.84,104.24,19,121-34.1,144.77-50.83,39.9-48.58,40.54-55-5.15-70.78-11.58-82.36-31.53-36-31.53-36"/><path class="cls-15" d="M625.85,469.66s15.45,11.58,18,31.53-9.65,69.49-17.37,77.86-50.19,20.59-58.56,22.52-51.47-3.86-60.48-5.79c-1.56-.34-3.76-.95-6.34-1.74"/><polyline class="cls-15" points="500.76 593.9 425.1 600.28 412.55 611.38"/><path class="cls-15" d="M357.77,594.63l0-7.27a8.35,8.35,0,0,1,5.35-7.74l29.11-11.22a8.35,8.35,0,0,1,10,3.23,52.59,52.59,0,0,1,7.78,22.1,37.2,37.2,0,0,1-4.17,22.93,8.32,8.32,0,0,1-11.32,3.24L362.09,602A8.34,8.34,0,0,1,357.77,594.63Z"/><path class="cls-15" d="M394.56,619.9s-1.14,14.58-19.41,19.32a6.55,6.55,0,0,1-6.82-2.29c-3.92-5-11-15-12-22.89,0,0,.22-8.19,5.75-12.06"/><path class="cls-15" d="M393.52,568S389.84,551.1,374.84,544a5.8,5.8,0,0,0-6.68,1.25c-4.31,4.52-11,14.19-14,21.91s5,16.09,5,16.09"/><path class="cls-15" d="M365.22,633a42.14,42.14,0,0,1-30.43-20.44c-11.23-18.89-5.85-35.05-2.33-44.28,2.87-7.51,16-23.22,34.62-21.71"/><path class="cls-15" d="M252.18,496.85c-2.22.73-3.32,1.08-5.45,1.75-2.52.78-5.77-.49-8.33-3-7.55-7.29-15.11-14.47-23.27-21.1-2.95-2.43-4.29-5.76-3-8.36,1.73-3.52,5.57-8.87,13.53-14.31a30.85,30.85,0,0,1,21.09-5.49c4.36.55,7.81,5.08,7.83,9.7,0,11.68.36,23.36,1.12,35C255.88,493.82,254.52,496.08,252.18,496.85Z"/><path class="cls-15" d="M254.36,453.55c10.12-2.11,20.91,5.09,26.59,12.74,1.71,2.3,2.52,5.26,1.6,7.5-2.25,5.45-7.31,15.62-13.6,19,0,0-7.16,2.26-13.39-1.89"/><path class="cls-15" d="M212.24,471.92s-8.5,4.17-3.89,15.33a15.16,15.16,0,0,0,3.77,5.1c3.88,3.36,11.3,8.62,16.91,10.49s10.87-6,10.87-6"/><path class="cls-15" d="M280.8,478.09c4.7,11,4.14,26.22-1.44,36.34-6,10.93-19.27,13.94-32,13-15-1.14-35.39-19.63-31.8-31.51"/><line class="cls-15" x1="269.57" y1="523.8" x2="316.35" y2="493.47"/><polyline class="cls-15" points="254.8 452.72 268.95 443.28 281.39 422.26"/><path class="cls-15" d="M405.47,617.66s10.3-4.19,11.48-19.52c1.29-16.77-6.3-28.08-12.44-32.17-3.86-2.58-4.72.42-13.73,3"/><path class="cls-15" d="M401.29,565.05s-4.5-12.22-9-17.37"/><path class="cls-15" d="M375.15,639.22s20.67-.65,26.46-18.67"/><line class="cls-15" x1="195.14" y1="125.82" x2="198.6" y2="162.95"/><path class="cls-15" d="M94,235c1.24,10.74,1.84,20.81,1.23,28.55"/><path class="cls-15" d="M83.91,186.3c3,7.19,5.36,17.39,7.28,28.8"/><path d="M308.79,327.75a19.79,19.79,0,0,1,6.67,1.47,26.6,26.6,0,0,1,5.82,3.22,30.64,30.64,0,0,1,4.8,4.51c.75.8,1.34,1.72,2,2.57s1.18,1.83,1.77,2.74c-.66-.86-1.29-1.75-2-2.59s-1.39-1.65-2.19-2.38a29.6,29.6,0,0,0-5-4,25.61,25.61,0,0,0-5.76-2.64,18.1,18.1,0,0,0-6.06-.88Z"/><path class="cls-15" d="M135.75,176.25s4.19,7.72,9.23,35.39"/><path class="cls-15" d="M181,166.17s9,9.86,12.86,30.88"/><path class="cls-15" d="M262.22,170.65c-4.39.4-7.5-.55-15.57-7.91"/><path class="cls-15" d="M297,168.47c1.43-.1,4.51-1.3,3.2-3.91s-7.45-6.49-7.45-6.49"/><path class="cls-15" d="M246.78,241a37.58,37.58,0,0,1-15.12-5.5"/><path class="cls-15" d="M340.08,71.69c0-3.54,3.86-41.82,5.47-44.72s21.88-16.4,21.88-16.4c-9.33,1.6-27.67,7.72-30.24,11.58s-14.72,41.28-17,47.07"/><path class="cls-15" d="M367.43,10.57s4.6,8.19,8,15.5"/><path class="cls-15" d="M132.49,178.18s-.58-3.66,1.29-4.1c1.12-.27,1.5.4,2.11,2.54"/><ellipse class="cls-15" cx="263.81" cy="151.55" rx="8.9" ry="4.4"/><path class="cls-15" d="M272.71,151.2v4.85c0,2.43-4,4.4-8.9,4.4s-8.9-2-8.9-4.4v-4.5"/><path class="cls-15" d="M295.44,212.51c0,6.11-5.13,10.33-10.79,10.33S275,218.62,275,212.51s4.58-11.07,10.24-11.07S295.44,206.4,295.44,212.51Z"/><path class="cls-15" d="M289.36,202.45l-5.6-3.33a3.28,3.28,0,0,0-2.15-.52c-6.35.79-10.77,3.8-10.36,13.47a3.35,3.35,0,0,0,1.06,2.3l5.87,6.12"/><path class="cls-15" d="M165.47,326.82s-5.15,5.79,1.28,11.58"/><path d="M305.3,434,372,413.2l33.3-10.52,16.61-5.37c5.51-1.85,11.06-3.61,16.49-5.72-5.4,2.19-10.93,4-16.41,6l-16.54,5.61-33.14,11L306,435.86Z"/><path class="cls-15" d="M150.56,260.11s-1.72,1.72,1.71,4.08.43,6.43,4.51,14.8,31.53,44.61,43.11,59.84,78.5,83,86.44,87.94,13.72,10.08,19.3,8.15c.85-.3,6.77-1.84,11.85-3.46"/><polygon points="384.73 273.14 393.69 259.47 402.58 245.74 394.55 259.99 386.44 274.19 384.73 273.14"/><path class="cls-15" d="M300.27,338.61s0-8.58,8.58-9.86,9.86-4.29,22.73-16.73,54.27-38.61,54.27-38.61"/><path d="M593.77,328.9a14.46,14.46,0,0,1-4.23,4.48,46.62,46.62,0,0,1-5,3.15c-3.41,1.89-6.92,3.51-10.45,5.07-7.07,3.11-14.25,5.91-21.3,9,6.91-3.42,14-6.52,20.87-9.93,3.45-1.7,6.87-3.47,10.12-5.46a43.38,43.38,0,0,0,4.66-3.23,12.69,12.69,0,0,0,3.5-4Z"/><path d="M454.26,154.49a4.21,4.21,0,0,1,.31.85,6.72,6.72,0,0,1,.1.75,9.55,9.55,0,0,1-.05,1.33,21.19,21.19,0,0,1-.43,2.47c-.37,1.59-.84,3.13-1.34,4.66-1,3-2.15,6-3.34,9-2.39,5.92-5,11.74-7.68,17.51,2.4-5.9,4.68-11.85,6.75-17.86,1-3,2-6,2.83-9.07.41-1.52.79-3.05,1.06-4.58a18.11,18.11,0,0,0,.28-2.26,9.13,9.13,0,0,0,0-1.05c0-.15-.06-.28-.08-.43s-.09-.16-.1-.26Z"/><path d="M500.83,595c-5.53-1.89-11-3.94-16.4-6s-10.83-4.22-16.22-6.39q8.25,2.79,16.55,5.45c5.54,1.76,11.08,3.49,16.66,5Z"/><path d="M316.49,351.71a65.69,65.69,0,0,1,11.77,22.83A51.65,51.65,0,0,1,329,400a51.08,51.08,0,0,0-1.71-25.13A64.19,64.19,0,0,0,314.94,353Z"/><line class="cls-15" x1="54.26" y1="177.96" x2="13.29" y2="185.26"/><line class="cls-15" x1="57.78" y1="182.25" x2="15.86" y2="189.76"/><line class="cls-15" x1="60.13" y1="186.54" x2="16.94" y2="194.27"/><line class="cls-15" x1="61.95" y1="191.05" x2="18.44" y2="198.77"/><line class="cls-15" x1="63.22" y1="195.55" x2="19.35" y2="203.26"/><line class="cls-15" x1="64.39" y1="200.27" x2="20.47" y2="207.99"/><line class="cls-15" x1="65.19" y1="204.99" x2="21.6" y2="212.59"/><line class="cls-15" x1="66.16" y1="209.6" x2="22.19" y2="217.32"/><line class="cls-15" x1="67.36" y1="214.21" x2="23" y2="222.13"/><line class="cls-15" x1="67.99" y1="218.93" x2="23.58" y2="226.87"/><line class="cls-15" x1="68.63" y1="223.65" x2="24.5" y2="231.57"/><line class="cls-15" x1="68.75" y1="228.15" x2="25.09" y2="236.3"/><line class="cls-15" x1="69.39" y1="232.87" x2="25.36" y2="240.9"/><line class="cls-15" x1="70.02" y1="237.59" x2="25.94" y2="245.63"/><line class="cls-15" x1="70.14" y1="242.63" x2="26.54" y2="250.44"/><line class="cls-15" x1="70.77" y1="247.35" x2="27.12" y2="255.18"/><line class="cls-15" x1="70.66" y1="252.28" x2="26.96" y2="260.1"/><line class="cls-15" x1="70.88" y1="257.11" x2="27.55" y2="264.83"/><line class="cls-15" x1="70.88" y1="261.72" x2="27.12" y2="270.09"/><line class="cls-15" x1="69.91" y1="266.76" x2="27.02" y2="274.59"/><line class="cls-15" x1="69.38" y1="271.8" x2="26.91" y2="279.63"/><line class="cls-15" x1="67.55" y1="277.06" x2="25.66" y2="284.67"/><polygon points="212.83 266.43 200.32 269.12 212.26 264.52 212.83 266.43"/></svg>