<svg id="Layer_1" data-name="Layer 1" xmlns="http://www.w3.org/2000/svg" xmlns:xlink="http://www.w3.org/1999/xlink" viewBox="0 0 550 790"><defs><style>.cls-1{fill:#828282;}.cls-2{fill:#bebebe;}.cls-3{fill:#fff;}.cls-4{fill:url(#linear-gradient);}.cls-5{fill:url(#linear-gradient-2);}.cls-6{fill:url(#linear-gradient-3);}.cls-7{fill:url(#linear-gradient-4);}.cls-8{fill:#eaeaea;}.cls-9{fill:url(#linear-gradient-5);}.cls-10,.cls-11,.cls-12{fill:none;stroke:#000;}.cls-10,.cls-12{stroke-miterlimit:10;}.cls-10,.cls-11{stroke-width:2px;}.cls-11{stroke-linejoin:round;}.cls-13{fill:#212121;}.cls-14{fill:#b6d4ff;}.cls-15{fill:#ff9a00;}.cls-16{fill:#ffbdf8;}.cls-17{opacity:0.6;}.cls-18{fill:url(#linear-gradient-6);}.cls-19{fill:url(#linear-gradient-7);}</style><linearGradient id="linear-gradient" x1="133.24" y1="152.05" x2="191.11" y2="152.05" gradientUnits="userSpaceOnUse"><stop offset="0" stop-color="red"/><stop offset="1" stop-color="#ff7f00"/></linearGradient><linearGradient id="linear-gradient-2" x1="82.03" y1="139.66" x2="180.99" y2="139.66" xlink:href="#linear-gradient"/><linearGradient id="linear-gradient-3" x1="88.55" y1="342.34" x2="321.55" y2="342.34" gradientUnits="userSpaceOnUse"><stop offset="0" stop-color="#828282"/><stop offset="1" stop-color="#bebebe"/></linearGradient><linearGradient id="linear-gradient-4" x1="239.21" y1="247.93" x2="271.27" y2="247.93" xlink:href="#linear-gradient"/><linearGradient id="linear-gradient-5" x1="106.13" y1="690.12" x2="445.78" y2="690.12" gradientUnits="userSpaceOnUse"><stop offset="0" stop-color="#828282"/><stop offset="0.05" stop-color="#9a9a9a"/><stop offset="0.15" stop-color="#d7d7d7"/><stop offset="0.2" stop-color="#f8f8f8"/><stop offset="0.25" stop-color="#e9e9e9"/><stop offset="0.33" stop-color="#d4d4d4"/><stop offset="0.41" stop-color="#c8c8c8"/><stop offset="0.5" stop-color="#c4c4c4"/><stop offset="0.63" stop-color="#eaeaea"/><stop offset="0.67" stop-color="#f8f8f8"/><stop offset="0.72" stop-color="#e6e6e6"/><stop offset="0.79" stop-color="#d2d2d2"/><stop offset="0.83" stop-color="#cbcbcb"/><stop offset="0.84" stop-color="#cecece"/><stop offset="0.89" stop-color="#e3e3e3"/><stop offset="0.95" stop-color="#efefef"/><stop offset="1" stop-color="#f3f3f3"/></linearGradient><linearGradient id="linear-gradient-6" x1="444.04" y1="628.12" x2="444.04" y2="626.38" gradientUnits="userSpaceOnUse"><stop offset="0" stop-color="red"/><stop offset="0.3" stop-color="#ff7f00"/><stop offset="0.3" stop-color="#ff7f00" stop-opacity="0.98"/><stop offset="0.39" stop-color="#ff7f00" stop-opacity="0.75"/><stop offset="0.47" stop-color="#ff7f00" stop-opacity="0.55"/><stop offset="0.56" stop-color="#ff7f00" stop-opacity="0.38"/><stop offset="0.64" stop-color="#ff7f00" stop-opacity="0.24"/><stop offset="0.73" stop-color="#ff7f00" stop-opacity="0.14"/><stop offset="0.82" stop-color="#ff7f00" stop-opacity="0.06"/><stop offset="0.91" stop-color="#ff7f00" stop-opacity="0.02"/><stop offset="1" stop-color="#ff7f00" stop-opacity="0"/></linearGradient><linearGradient id="linear-gradient-7" x1="273.6" y1="692.55" x2="273.6" y2="470.95" gradientUnits="userSpaceOnUse"><stop offset="0" stop-color="#fff"/><stop offset="0.39" stop-color="#fff"/><stop offset="0.46" stop-color="#fff" stop-opacity="0.92"/><stop offset="0.59" stop-color="#fff" stop-opacity="0.72"/><stop offset="0.79" stop-color="#fff" stop-opacity="0.38"/><stop offset="1" stop-color="#fff" stop-opacity="0"/></linearGradient></defs><path class="cls-1" d="M304.69,139.58s-3.05-15.65-1.83-20.93,17.05-19.49,21.54-24c9.35-9.35,11.38-12.19,11-21.54-.62-14.22-20.05-59.06-20.05-59.06s-24.38,31.69-26.55,35-3,4.87-3,11.38.54,47.95,2.71,56.62S304.69,139.58,304.69,139.58Z"/><path class="cls-2" d="M354.88,230.27c-3.25-14.63-20.05-47.68-28.18-61.77S291,124.54,288.84,118,284,57.35,286.2,53s29.12-38.94,29.12-38.94c-8.13,5.41-40.64,32.51-42.26,37.38s-5.42,57.44-5.42,57.44-8.67-16.8-28.72-19-32,9.21-42.81,28.17-24.38,48.23-24.38,48.23-42.2,69.36-47.48,75.46-10.77,6.09-17.28,13-1.22,16.66,1.22,21.13-2.84,17.89-7.31,26S81.37,319.82,83,324.29s10.16,28.85,10.16,28.85-7.73,2.44-6.91,11.79,4.47,10.56,4.47,10.56,2.44,9.76,9.75,13c0,0-50.39,81.28-50,89.41S59,506.35,59,506.35,41.54,513.67,34.63,536s-14.22,60.56-4.06,87,37.8,54,37.8,54-1.63,42.27-2,49.18,13,28.85,13,28.85-3.25-12.6,6.09-21.13c0,0-2.84-8.94-1.62-16.26s12.6-21.94,16.66-23.57,9.35.41,9.35.41.4-7.72,2.44-9.35,10.56-6.5,10.56-6.5-15-49.58-16.66-58.12S113.07,608.77,120,608s252.37-2.85,280-3.26,38.2.82,41.45,2,6.51,4.47,2.44,20.72-30.07,100-30.07,100S429.66,727,446.32,712s21.13-19.1,21.13-19.1,8.94,4.88,6.1,13.82c0,0,2.84-2,8.53-.41s8.94,5.69,13,13.82,7.31,14.23,4.47,18.29a22.11,22.11,0,0,1-6.5,6.1s1.62-2.44,6.5,2.43,6.91,11.38,3.66,16.67c0,0,5.28-3.25,9.75-18.7s6.91-30.88,4.88-36.57-5.69-17.48-5.69-17.48,21.54-25.6,26.82-37,8.53-8.54,2-41.45-8.94-43.08-15.44-47.55-18.7-8.94-18.7-8.94,1.63-15-3.25-39.43a254.94,254.94,0,0,0-11.78-41.45s3.38-30.48,2.3-37.79c-1.15-7.73-124.09-198.33-126.8-199.41s-11.92-3.8-11.92-3.8Z"/><path class="cls-3" d="M233.5,259.8s17.34,4.07,23.57,3,9.48-5.69,14.36-11.65.27-25.19.27-25.19-13.54,3.93-17.07,6.91S233.5,259.8,233.5,259.8Z"/><path class="cls-1" d="M355.42,234.06s-2.71,15.45-9.48,26.56-15.17,22.21-15.17,22.21,19.77-15.71,26.82-24.65,9.75-20.32,9.75-20.32Z"/><path class="cls-4" d="M133.8,158.88S134.2,123.52,148,87c0,0,6.1,42.67,19.91,70.71S191.51,193,191.1,201.55s-11,12.19-19.91,13.82-28.86,7.32-34.14-16.26S133.39,168.63,133.8,158.88Z"/><path class="cls-5" d="M82.59,18.67s-4.06,65.84,9.75,148.74,29.3,91.59,36.58,92.66c14.63,2.17,30.34-1.62,42.27-16.25,9.46-11.62,14.35-25.74,4.06-34.14C164.11,200.59,91.53,111.33,82.59,18.67Z"/><path class="cls-6" d="M321.55,256c-.81,6-6.77,41.72-9.75,44.7s-30.07,22.22-30.07,22.22l-2.6,1.95c-10.27,7.42-14.84,25.59-29.51,42.08s-32.38,27.5-53,35.36a88.59,88.59,0,0,1-28.73,6.25,126.52,126.52,0,0,1-22.74-1.51c-16.8-2.31-23.48-5.6-26.29-11.11-2.52-5-8.49-5.23-9.88-6.64,0,0-5.83,0-8.54-.81L88.55,408s13.28-3.52,17.61,1.09,18.42,16.25,34.41,18.15a258.92,258.92,0,0,0,33.32,1.36l-2.43-7.32s15.17-.81,33.86-8.94,39.83-20,57.17-43.89,13.28-31.43,25.2-40.64,25.19-20.86,27.9-26.28S321.55,256,321.55,256Z"/><path class="cls-1" d="M90.72,375.49s8.67,7.05,21.67-.27,25.74-16.8,39.29-17.61,28.72,6,36.3,12.73,17.61,9.49,27.64,1.36c9.14-7.41,18.06-23.37,22-29.83,0,0,4.86-10.88,6.48-29.17,0,0,.41,19.1-4.26,30.89s-13.35,25.33-20.93,32.92-23.57,8.33-32.11,2a95.42,95.42,0,0,0-18.9-11.18c-7.31-3.25-14.22-3.86-21.94-1.21-10.29,3.51-18.15,11-28.25,15.85-8.94,4.26-18.08,4.67-21.94,3A32,32,0,0,1,90.72,375.49Z"/><path class="cls-7" d="M271,251.53c.47-.53.14-1.42.14-2.16,0-8.9-6.71-16.52-17.17-16.22,0,0-3,1.93-6.2,7.21s-8.58,12.1-8.58,12.1a16.19,16.19,0,0,0,6,9.68s7.88,1.19,12.14.17S263.76,259.66,271,251.53Z"/><path d="M244.31,261.4a13.41,13.41,0,1,1,25.4-7.77,63.57,63.57,0,0,1-5.66,6c-1.63,1.22-5.49,3.45-9.15,3.25s-10.59-1.52-10.59-1.52"/><circle class="cls-3" cx="256.73" cy="247.88" r="4.47"/><circle class="cls-3" cx="251.42" cy="253.19" r="3.18"/><path d="M195.5,342c2.85-5.48,8.47-.95,9.82-2.57.87-1,9.49-10.57,9.49-12.19s-3.26-19.51-3.26-19.51-4.53,1.29-5.75,2.3-7.32,10.09-8.74,13.07-2.3,4.2-2.24,6.91S195.5,342,195.5,342Z"/><path class="cls-1" d="M252.87,135.31s9.55-7.11,12.4-11.38,2.64-16.05,2.64-16.05L258,96.5s5.08,11.58,4.88,16.86S264.86,125.76,252.87,135.31Z"/><path class="cls-8" d="M322.77,451.76c5.45-2.24,11-4,16.46-5.66l8.19-2.47c1.35-.42,2.7-.81,4-1.25s2.62-.88,3.73-1.38l.72-.34a4,4,0,0,0,.54-.35,9.18,9.18,0,0,0,1.19-1.11,23.05,23.05,0,0,0,2.37-3c1.54-2.2,2.92-4.63,4.31-7.08,2.76-4.94,5.38-10.06,8.34-15.15a69.62,69.62,0,0,1-4,17.12,52.45,52.45,0,0,1-3.8,8.18,28.26,28.26,0,0,1-2.79,3.92,15.09,15.09,0,0,1-1.95,1.85,12.56,12.56,0,0,1-1.26.85c-.25.14-.43.22-.63.32s-.41.21-.59.28a52.06,52.06,0,0,1-8.72,2.62c-2.87.65-5.74,1.15-8.62,1.56A103.74,103.74,0,0,1,322.77,451.76Z"/><path class="cls-1" d="M129.12,285.47A115.12,115.12,0,0,0,111,294.62c-8.13,5.28-10.16,7.31-10.16,7.31s5.28-9.95,6.7-15.44a34.73,34.73,0,0,0,1.22-9.55S112.05,283,129.12,285.47Z"/><path class="cls-1" d="M279.13,324.88s6.12-20.91,7.74-33.38l-.81,29Z"/><path class="cls-8" d="M128.38,261.43a52.73,52.73,0,0,0,20.21-2.66,49.72,49.72,0,0,0,9-4.15c.7-.42,1.37-.9,2.06-1.34l1-.68a8,8,0,0,0,1-.73l1.93-1.53,1-.76.89-.86a46.45,46.45,0,0,0,3.54-3.48l1.7-1.84c.6-.59,1-1.29,1.58-1.92s1.06-1.28,1.54-1.95l1.39-2c.22-.34.48-.67.68-1l.6-1.07a23.72,23.72,0,0,0,1.18-2.15,29.83,29.83,0,0,0,3-9.36c.11-.82.18-1.65.23-2.49s0-1.69-.05-2.53a20,20,0,0,0-.93-5.12,15.31,15.31,0,0,1,2.56,4.78,20.14,20.14,0,0,1,.74,2.66c.16.91.31,1.84.4,2.77A27.35,27.35,0,0,1,182,235c-.27.91-.7,1.74-1,2.61l-.57,1.29c-.19.43-.44.82-.66,1.24l-1.37,2.44c-.5.78-1.05,1.52-1.57,2.29a43.83,43.83,0,0,1-3.45,4.32,48.42,48.42,0,0,1-3.9,3.95l-1,1-1.11.85-2.22,1.7a9.15,9.15,0,0,1-1.17.78l-1.19.73c-.81.47-1.59,1-2.42,1.41l-2.54,1.18c-.43.19-.84.41-1.28.57l-1.33.46c-.88.29-1.75.63-2.65.87l-2.71.64C142.57,264.75,134.94,264.32,128.38,261.43Z"/><path class="cls-8" d="M179.92,214.56a55.34,55.34,0,0,0,6.71-4.68,20.73,20.73,0,0,0,2.74-2.72,9.93,9.93,0,0,0,1.83-3c.63-2,.06-4.66-.82-7.12a70,70,0,0,0-3.35-7.5,22.78,22.78,0,0,1,5.47,6.54,16,16,0,0,1,1.62,4.15,9.39,9.39,0,0,1-.06,4.82,10.92,10.92,0,0,1-2.55,4,16.91,16.91,0,0,1-3.49,2.75A19.54,19.54,0,0,1,179.92,214.56Z"/><path class="cls-8" d="M221.51,237.45c-1.09,4.24-2.35,8.42-3.32,12.61-.25,1-.49,2.08-.64,3.08a8.08,8.08,0,0,0-.13,1.39c0,.16.06.4,0,.17-.17-.44-.14-.26,0-.21a7.51,7.51,0,0,0,1.14.57c.45.18.92.36,1.4.52,1,.32,2,.59,3,.83a26.78,26.78,0,0,0,5.9.79,6.06,6.06,0,0,0,1.15-.11l.29-.09s0,0,.07-.1a21.66,21.66,0,0,0,1.81-2.15c2.53-3.34,5-7,7.42-10.51s4.88-7.15,7.57-10.72c.35-.44.69-.89,1.11-1.38a10.16,10.16,0,0,1,1.58-1.43,21.88,21.88,0,0,1,3.14-1.84,48.8,48.8,0,0,1,6.3-2.5c2.12-.69,4.24-1.32,6.39-1.85,1.08-.26,2.16-.5,3.27-.71l.89-.15H270s0,0,0,0h0a.78.78,0,0,0,.19-.06,6.33,6.33,0,0,0,1.13-.72,37.32,37.32,0,0,0,4.61-4.33c.74-.79,1.46-1.59,2.16-2.43a31.51,31.51,0,0,0,2-2.57,31.63,31.63,0,0,1-3,5.88,34.75,34.75,0,0,1-4.08,5.37,8.52,8.52,0,0,1-1.48,1.22,3.51,3.51,0,0,1-.55.28,2,2,0,0,1-.35.13l-.27.07-.71.2c-1,.31-2,.67-3,1-2,.72-4,1.47-6,2.31a61.26,61.26,0,0,0-5.64,2.71,18.16,18.16,0,0,0-2.4,1.59,4.59,4.59,0,0,0-.8.78c-.27.35-.58.77-.88,1.2-2.4,3.48-4.79,7.16-7.25,10.74s-4.94,7.18-7.76,10.69a21.87,21.87,0,0,1-2.53,2.71,4.87,4.87,0,0,1-1.28.8,6.1,6.1,0,0,1-1.28.36,9.49,9.49,0,0,1-2.08.11,26.48,26.48,0,0,1-6.92-1.45c-1.09-.36-2.16-.77-3.22-1.24-.53-.24-1.06-.49-1.59-.78a9.31,9.31,0,0,1-1.66-1.08l-.23-.2-.25-.26a2.69,2.69,0,0,1-.57-.95,3.48,3.48,0,0,1-.09-1.45,11.7,11.7,0,0,1,.41-1.82c.32-1.12.71-2.16,1.11-3.2A102.6,102.6,0,0,1,221.51,237.45Z"/><path class="cls-1" d="M191.3,127.79s-11.58,2-16.46.61S153.91,118,153.91,118s6.51,21.74,9.55,29.66A163.89,163.89,0,0,0,172,165.38Z"/><path class="cls-1" d="M140.3,111.13s-5.28,25.4-6.3,43.28a266.27,266.27,0,0,1-20.73-36.17C104.74,99.55,98.44,84.1,98.44,84.1Z"/><path class="cls-1" d="M82.59,79.43s3,37,4.67,50.39,2.85,23.78,2.85,23.78-6.1.2-7.93-2.85S69,114.58,66.13,103.41,60.85,83.29,62.47,79C62.47,79,77.1,78.82,82.59,79.43Z"/><path class="cls-1" d="M255.31,308.44a9.69,9.69,0,0,0-2.14-4.77,5,5,0,0,0-1.92-1.39,7.27,7.27,0,0,0-1.11-.38c-.38-.08-.79-.13-1.16-.17a8.19,8.19,0,0,0-4.37,1.47,27,27,0,0,0-4.05,3.21,87.07,87.07,0,0,0-7.26,7.91c-2.3,2.81-4.51,5.71-6.84,8.61a48.59,48.59,0,0,1,4.95-10,44.5,44.5,0,0,1,7.1-8.74,24.7,24.7,0,0,1,4.68-3.47,12.7,12.7,0,0,1,2.84-1.15,7.47,7.47,0,0,1,8.33,3.22A8.47,8.47,0,0,1,255.31,308.44Z"/><path class="cls-1" d="M435.62,605.52s12.46-37.12,19.23-62c0,0-1.35-7.85-4.33-12.46s-10.84-11.92-21.4-16.8S404.73,505,392.27,505s-18.43,1.63-26.82,5.15-17.89,7-22.76,15.71c0,0,12.46-12.19,33.86-15.44s45,4.88,50.4,8.94,16.8,13.55,17.61,19.24S424.51,605,424.51,605Z"/><path class="cls-1" d="M211.83,534.19a132.59,132.59,0,0,0-39-15.64c-21.67-4.61-46.06,7-49.31,8.4s-15.71,11.65-19,17.88S97.22,561.35,98.3,567,117.54,608,117.54,608l16.8-.28s-21.41-35.76-23.84-42.8,4.73-23.39,15.17-31.16c12.73-9.48,29.73-13.07,41.72-12.74C186.9,521.53,211.83,534.19,211.83,534.19Z"/><path class="cls-1" d="M467.45,692.89s14.63-13.41,22.35-25.4,8.95-14.42,11.79-35.56,5.28-76,5.28-76l18.9,8.94s-5.49-.61-7.11,27.23-5.43,52.4-10.77,65.22c-11.18,26.83-34.95,40.44-34.95,40.44Z"/><path class="cls-1" d="M59,506.35S73.78,544,77.71,552.55s8.54,17.07,10.7,19.51,5.69,5,11.38,1.62L117.54,608a43,43,0,0,0-8.4,4.06c-4.61,3.25-3.52,7.59-3.52,7.59s-15.31-32.25-16.39-34.28-7.32-.27-16.26-19.64-20.45-56-20.45-56Z"/><path class="cls-8" d="M196,346.84A89.55,89.55,0,0,1,192.55,334c-.22-1.09-.39-2.2-.54-3.32-.07-.56-.13-1.13-.18-1.72a9.87,9.87,0,0,1,0-1.95,9.11,9.11,0,0,1,.58-1.88c.22-.55.45-1.09.7-1.6.5-1,1-2,1.56-3,1.11-2,2.28-3.85,3.56-5.69a43.45,43.45,0,0,1,4.18-5.35,8.34,8.34,0,0,1,.67-.65,3.92,3.92,0,0,1,.9-.6,9.93,9.93,0,0,1,1.71-.63,30.92,30.92,0,0,1,3.33-.71,55,55,0,0,1,6.65-.64c-2.13.66-4.25,1.28-6.33,2-1,.36-2.07.7-3,1.12A8.56,8.56,0,0,0,205,310a2,2,0,0,0-.44.36c-.15.17-.3.36-.46.56a122,122,0,0,0-6.81,11c-.51.95-1.05,1.89-1.52,2.85q-.36.71-.66,1.41a7,7,0,0,0-.43,1.26,7.45,7.45,0,0,0-.08,1.35q0,.78.06,1.59l.25,3.24C195.32,338,195.77,342.39,196,346.84Z"/><path class="cls-1" d="M197.47,444.31C188.89,443,184,441.39,181.12,440l-.57,12c11.2,4.58,22.36,3.39,48.07,3.39,32,0,69.63-5.15,69.63-5.15C275.22,450.54,219.68,447.83,197.47,444.31Z"/><path class="cls-1" d="M222,504.05c-17.75-3.52-24.52-11.38-24.52-11.38l-.56.08,5.57,4.05,4.62,13.69c10,3,20.5,1.55,42.39,1.55,32,0,51.07-4.6,51.07-4.6C277.53,507.71,244.05,508.43,222,504.05Z"/><path class="cls-8" d="M442.66,715l4.47,7,7.22-.3s-4.17,6.5-4.37,9.24.2,3,1.72,6.2,9.76,14.53,9.76,14.53l4.27.61s1.42,6.91,2.74,9.65,2.54,4.57,3.45,4.88,20.42.71,23.37.4,7.11-1,8.74-4.06a10.21,10.21,0,0,0-.41-10.06,36.35,36.35,0,0,0-6-8c-1.93-1.83-2.75-1.73-2.75-1.73s4.78-3.56,5.29-6.2a15,15,0,0,0-1.32-10c-1.93-3.55-7.32-13.81-9.25-16.35s-6.81-4.58-9.75-5a15.39,15.39,0,0,0-6.3.81,10.18,10.18,0,0,0,.61-6.4c-.81-3.66-6.4-7.62-6.4-7.62Z"/><path class="cls-8" d="M122.82,678.67s-9.34,4.47-10.56,6.5-2.44,9.35-2.44,9.35-4.2-1.76-7.32-1.22-5,1.9-9.62,8-8.67,13.14-9.07,17.48,1.62,15.17,1.62,15.17-3,2.57-5.41,10.3a26.21,26.21,0,0,0,.4,16.12c.54,1.62,1.63,3.11,3,3.38s22.08,1.63,26.15,1.09,6.36-1,7.18-3.53,3.38-8.26,3.11-11.51-.27-5.83-.27-5.83a6.62,6.62,0,0,0,5.42-3.11c1.76-3.12,6.77-19.1,6.77-19.1l1.9-1.09Z"/><path class="cls-1" d="M502,509.61s-3.66,27.63-17.07,43.07-12.6,3.26-19.92,27.64-45.92,145.9-45.92,145.9l-5.28,1.22s20.93-66.86,25.8-84.13,5.49-21.94,6.1-28-2.64-8.74-5.08-9.35a17.66,17.66,0,0,0-5-.4l19.23-62s6.71,4.13,10.77,1.9,7.32-6.91,10-13.82,11.18-34.95,16.26-56.49C491.84,475.06,501,498.84,502,509.61Z"/><path class="cls-9" d="M413.81,727.44c-1.22,3.52-5,14.9-8.81,27.09s-20.59,17.61-26.28,17.61-188.3,3.79-205.91,3.79-25.74-14.08-27.91-19.23-22.08-78-22.08-78-13.81-46.94-15.24-53-2.64-9.55.61-12.8S114.9,608.36,120,608s293.62-3.66,296.67-3.66,16.46.4,21.34,1.62,8.33,2.64,7.72,8.74-1.22,11.38-5.89,27.23S413.81,727.44,413.81,727.44Z"/><path class="cls-1" d="M288.64,699.8s-8.24-.63-11.89.41c-5.69,1.62-8.84,5.69-10.87,10.56s-6.91,7.32-12.2,3.26-9.24-13.49-5.68-26.83c3.25-12.19,7.11-18.79,16.05-16.35s11.17,2.13,17.27-.72,8.89-.13,10.77,5.9C294,682.23,299.51,700.41,288.64,699.8Z"/><path class="cls-1" d="M270.45,672.37s-2.74-5,.41-12,7.72-10.16,11.78-9.55,5,5.49,1.42,10.26-10.87,6.71-10.77,11.28"/><path class="cls-8" d="M107.79,252.51a31.47,31.47,0,0,0,.08,12.05,15.47,15.47,0,0,0,5.64,9.19c.33.27.74.54,1.14.81s.78.51,1.17.73a13.73,13.73,0,0,0,2.37,1.11,23.25,23.25,0,0,0,5.34,1.13c1.92.2,3.92.36,5.94.44l1.52.08.38,0h.18l.55,0c.86-.09,1.86-.27,2.87-.44a68.2,68.2,0,0,1,12.85-1.44,36,36,0,0,1,6.67.69c1.1.22,2.18.5,3.11.73.46.1.89.2,1.22.24a4.45,4.45,0,0,0,.47.05h.21l.35,0c4.15-.22,8.27-.24,12.24-.6a32.79,32.79,0,0,0,5.88-1,41.85,41.85,0,0,0,5.81-2.1,24.27,24.27,0,0,1-5,3.94,28.1,28.1,0,0,1-6,2.59,88.8,88.8,0,0,1-12.42,2.46l-.42.06-.57,0a7.71,7.71,0,0,1-1.08,0,16.84,16.84,0,0,1-1.84-.27c-1.09-.22-2-.43-3-.58a30.59,30.59,0,0,0-5.68-.4A66.14,66.14,0,0,0,136,283.44c-1,.19-2.08.38-3.27.52-.33,0-.62.06-1,.07h-.59l-.39,0-1.59-.06a62.63,62.63,0,0,1-6.43-.62,24.74,24.74,0,0,1-6.68-1.9,18.72,18.72,0,0,1-3.09-1.85c-.48-.35-.91-.71-1.35-1.08s-.82-.73-1.25-1.16a17.46,17.46,0,0,1-4-5.77,20.9,20.9,0,0,1-1-3.29,22.69,22.69,0,0,1-.41-3.35A25.05,25.05,0,0,1,107.79,252.51Z"/><path class="cls-1" d="M159.13,284.32s14.09-1.22,25.2-10.83c0,0-5.83,8.53-12.87,11.51a23,23,0,0,1,6.5,5c2.44,3,6.37,9.62,15.71,8.27a15.62,15.62,0,0,1-13.82,0C172.54,294.62,169.29,289.06,159.13,284.32Z"/><path class="cls-1" d="M443.88,627.87c-1.22,3.52-35.08,114.47-38.88,126.66s-20.59,17.61-26.28,17.61-188.3,3.79-205.91,3.79-25.74-14.08-27.91-19.23-38.74-136.55-38.74-136.55,38.2,125.17,43.49,133.7,8.12,13,25.6,13S373.57,763.2,378,763.2s18-.75,22.76-11C408.52,735.57,443.88,627.87,443.88,627.87Z"/><path class="cls-8" d="M89.7,373.87a15.27,15.27,0,0,0,5,2,17.35,17.35,0,0,0,5.22.35,22.58,22.58,0,0,0,9.73-3.26c3-1.78,6.06-3.8,9.07-5.79s6.08-4,9.22-5.88a84,84,0,0,1,9.85-5.25,45.92,45.92,0,0,1,11-3.43c1-.15,2-.28,3-.34s1.95-.09,2.92-.07a50.21,50.21,0,0,1,5.76.41,60.9,60.9,0,0,1,11.12,2.59,63.44,63.44,0,0,1,10.4,4.61,49.65,49.65,0,0,1,4.86,3.08c1.55,1.08,3.18,2.53,4.33,3.49a21.31,21.31,0,0,0,8.49,4.36,16.32,16.32,0,0,0,9.24-.6,21.16,21.16,0,0,0,4.37-2.22,22.1,22.1,0,0,0,2-1.5c.68-.51,1.32-1.09,2-1.65A69.13,69.13,0,0,0,224.5,357c4.65-5.46,8.76-11.44,13.15-17.24a170.6,170.6,0,0,1-10.78,19,71.93,71.93,0,0,1-6.9,8.74,28.91,28.91,0,0,1-9.38,6.89,21.48,21.48,0,0,1-5.89,1.65,21,21,0,0,1-6.18-.25,26.64,26.64,0,0,1-10.92-5c-1.68-1.29-2.75-2.27-4.19-3.24A49.29,49.29,0,0,0,179,365a60.74,60.74,0,0,0-9.46-4.13,54.12,54.12,0,0,0-10-2.47,40.24,40.24,0,0,0-10-.22c-6.59.84-13,3.92-19.37,7.16s-12.54,7.07-19.22,10.28a24,24,0,0,1-11.07,2.28A16.55,16.55,0,0,1,89.7,373.87Z"/><path class="cls-8" d="M105.08,330.62c6,1,11.82,1.77,17.65,2.25,1.46.09,2.91.24,4.36.32s2.91.14,4.35.22c2.91,0,5.8.13,8.69,0l2.17,0,2.16-.15c1.44-.09,2.89-.12,4.33-.26s2.88-.31,4.33-.42c.72-.06,1.45-.12,2.16-.25l2.16-.31c1.44-.24,2.92-.32,4.35-.63s2.88-.53,4.35-.78,2.9-.58,4.37-.87,2.94-.61,4.47-.84a57.37,57.37,0,0,1-16.54,7.73,66.83,66.83,0,0,1-9,2c-1.52.26-3,.34-4.58.51l-2.3.2-2.31.05c-1.54,0-3.08.09-4.61,0s-3.07-.18-4.6-.31-3.05-.4-4.57-.64-3-.6-4.5-.92A53.58,53.58,0,0,1,105.08,330.62Z"/><path class="cls-1" d="M105.14,331.06a91.55,91.55,0,0,0,17.44,5.34,76.68,76.68,0,0,0,17.71,1.53,75.2,75.2,0,0,0,17.56-2.68A122.26,122.26,0,0,0,175,328.89,52.34,52.34,0,0,1,159.11,339a53.58,53.58,0,0,1-18.66,3.95,54.77,54.77,0,0,1-18.88-2.73,53.32,53.32,0,0,1-8.71-3.75A39.09,39.09,0,0,1,105.14,331.06Z"/><path class="cls-10" d="M356.5,447c-2.16,9.75-11.92,30.89-16.79,43.35-3.22,8.21-6.42,19.64-6.17,25.13.41,8.94,8.33,11.17,9.42,9.55,3.67-5.5,9.75-11.92,32.51-18.42s56.9,5.41,69.9,18.42,4.88,17.88,13,20.05c0,0,7.58,4.33,14.08-6.5s17.07-50.67,19.38-63.54"/><path class="cls-10" d="M455.13,542.93S441,591.7,435.89,605.52"/><line class="cls-10" x1="342.89" y1="524.64" x2="320.54" y2="605.52"/><path d="M356.41,234.24a105.87,105.87,0,0,1-3.81,13.41,69.13,69.13,0,0,1-5.88,12.61c-2.44,3.93-5.05,7.72-7.72,11.48s-5.41,7.46-8.23,11.09q4-5.59,7.82-11.37c2.52-3.85,5-7.74,7.27-11.71a67.74,67.74,0,0,0,5.32-12.59,102.33,102.33,0,0,0,3.26-13.27Z"/><path class="cls-10" d="M82.59,18.67s-4.06,65.84,9.75,148.74,29.3,91.59,36.58,92.66c14.63,2.17,30.34-1.62,42.27-16.25,9.46-11.62,14.35-25.74,4.06-34.14C164.11,200.59,91.53,111.33,82.59,18.67Z"/><path class="cls-10" d="M133.93,155.22c.52-9.95,2.92-38.71,14.09-68.27,0,0,6.1,42.67,19.91,70.71S191.51,193,191.1,201.55c-.3,6.21-6,9.83-12.47,12"/><path class="cls-11" d="M315.32,14.07s19.43,44.84,20.05,59.06c.41,9.35-1.62,12.19-11,21.54-4.49,4.49-20.32,18.69-21.54,24s1.83,20.93,1.83,20.93"/><path d="M221.58,237.32c-1.6,4.28-3.24,8.55-4.64,12.87-.34,1.07-.68,2.15-1,3.23-.14.54-.26,1.08-.36,1.6a4.35,4.35,0,0,0-.08,1.33c0,.06,0,0,0,0h0l0,0a.77.77,0,0,1,.13.12c.21.12.37.25.59.38l.68.36.74.32a29.34,29.34,0,0,0,3.11,1.1,41,41,0,0,0,6.47,1.36,14.51,14.51,0,0,0,3.08,0l.63-.13c.17-.07.27-.14.43-.19a5.58,5.58,0,0,1,.46-.39l.53-.56c1.43-1.57,2.82-3.4,4.16-5.2s2.66-3.68,4-5.53c2.66-3.7,5.25-7.45,8-11.14.36-.47.7-.92,1.08-1.39l.56-.69.69-.71a17.33,17.33,0,0,1,3-2.23,42.09,42.09,0,0,1,6.3-3.15c2.15-.88,4.32-1.68,6.54-2.34a34.1,34.1,0,0,1,3.45-.86,2.55,2.55,0,0,0,1.11-.6,9.93,9.93,0,0,0,1.19-1.08,47.39,47.39,0,0,0,4.28-5.22c1.33-1.84,2.63-3.72,3.81-5.68a57,57,0,0,1-3.11,6.14,44.32,44.32,0,0,1-3.89,5.75,7.44,7.44,0,0,1-.59.67,6.77,6.77,0,0,1-.66.65,4.25,4.25,0,0,1-1.84,1.07c-1,.25-2.08.64-3.13,1-2.1.8-4.19,1.66-6.21,2.62a50.13,50.13,0,0,0-5.82,3.21,15.26,15.26,0,0,0-2.45,2l-.49.53-.49.66c-.33.42-.66.9-1,1.35L243,249.76c-1.34,1.85-2.68,3.71-4.08,5.54a60,60,0,0,1-4.47,5.42c-.22.22-.43.44-.67.66s-.58.46-.88.68a8.16,8.16,0,0,1-1.15.47l-1.05.2a17,17,0,0,1-3.74-.15,35.22,35.22,0,0,1-6.86-1.75,31.8,31.8,0,0,1-3.28-1.34l-.81-.41-.81-.48a9,9,0,0,1-.81-.61c-.16-.16-.31-.34-.45-.51a1.78,1.78,0,0,1-.32-.78,5.76,5.76,0,0,1,.22-2.06q.22-.88.51-1.71c.37-1.11.79-2.19,1.23-3.25A136.87,136.87,0,0,1,221.58,237.32Z"/><path class="cls-10" d="M108.19,275.92s3.66,7.73,22.35,9.35"/><path d="M100.88,301.93c3.15-2.93,6.47-5.67,9.9-8.31a76.2,76.2,0,0,1,11.33-6.41,75.81,75.81,0,0,1,12.36-4.08,59,59,0,0,1,12.93-1.73,30.58,30.58,0,0,1,6.6.58,32,32,0,0,1,6.31,2,56,56,0,0,1,11.2,6.71c1.74,1.28,3.44,2.68,5.09,3.92a27.23,27.23,0,0,0,5.32,3.16,13.4,13.4,0,0,0,5.83,1.64,17.14,17.14,0,0,0,6.19-1.13,15.5,15.5,0,0,1-6.14,2.17,14.76,14.76,0,0,1-6.67-.84,28.4,28.4,0,0,1-5.71-3.39c-1.77-1.33-3.38-2.66-5.1-3.92a54.09,54.09,0,0,0-10.8-6.48,28.27,28.27,0,0,0-12.09-2.42,57,57,0,0,0-12.5,1.67,74.69,74.69,0,0,0-12,4,72.5,72.5,0,0,0-11,6.25C108.19,297.42,104.53,299.66,100.88,301.93Z"/><path d="M158.45,283.19a33.52,33.52,0,0,0,6.9-.8,45.08,45.08,0,0,0,6.79-2,47.85,47.85,0,0,0,6.45-3,56.12,56.12,0,0,0,6-3.9,55.32,55.32,0,0,1-5.75,4.32,47.84,47.84,0,0,1-13.14,6,35.83,35.83,0,0,1-7.26,1.34Z"/><path d="M105.08,331.06a68.48,68.48,0,0,0,8.55,2.94c2.89.83,5.83,1.48,8.77,2a86.34,86.34,0,0,0,17.86,1.34A83.72,83.72,0,0,0,158,334.94a100,100,0,0,0,17-6.05,69.27,69.27,0,0,1-16.58,7.56,69.77,69.77,0,0,1-18.09,2.91,80.22,80.22,0,0,1-9.17-.32,74.58,74.58,0,0,1-9-1.5A61.48,61.48,0,0,1,105.08,331.06Z"/><path d="M196.11,348.4c-.81-4.34-1.38-8.7-1.78-13.09a63.52,63.52,0,0,1-.33-6.67c0-.29.05-.62.07-.92s.15-.64.24-1c.2-.56.4-1.11.64-1.62.46-1,1-2,1.49-3A73.31,73.31,0,0,1,203.8,311a14,14,0,0,1,1.18-1.28,5.14,5.14,0,0,1,1.55-1,26.41,26.41,0,0,1,3.18-1.15,59.65,59.65,0,0,1,6.45-1.49c-2.06.8-4.12,1.56-6.12,2.42a26.84,26.84,0,0,0-2.91,1.38,4.48,4.48,0,0,0-1.14.86,13.5,13.5,0,0,0-1,1.21c-1.24,1.74-2.44,3.58-3.56,5.44s-2.25,3.73-3.27,5.64c-.51.95-1,1.9-1.46,2.86-.23.49-.41,1-.59,1.43-.06.22-.12.42-.17.65s-.06.46-.08.72c-.13,2.09,0,4.31,0,6.48C196,339.6,196.13,344,196.11,348.4Z"/><path class="cls-11" d="M233.5,259.8s17.34,4.07,23.57,3,9.48-5.69,14.36-11.65.27-25.19.27-25.19"/><path class="cls-11" d="M244.31,261.4a13.41,13.41,0,1,1,25.4-7.77"/><path class="cls-11" d="M245.2,262.14a16.19,16.19,0,0,1-6-9.68"/><path class="cls-11" d="M254,233.15c10.46-.3,17.17,7.32,17.17,16.22a16.92,16.92,0,0,1-.14,2.16"/><path d="M236.75,341.42a31,31,0,0,0,2.73-6.74c.71-2.39,1.33-4.82,1.91-7.26q1.7-7.34,3-14.78-.76,7.5-2,15c-.42,2.49-.88,5-1.45,7.45a31.61,31.61,0,0,1-2.46,7.39Z"/><path class="cls-11" d="M90.72,375.49s8.67,7.05,21.67-.27,25.74-16.8,39.29-17.61,28.72,6,36.3,12.73,17.61,9.49,27.64,1.36c9.14-7.41,18.06-23.37,22-29.83"/><path d="M225.24,325.37a60.7,60.7,0,0,1,5-11.55,55.83,55.83,0,0,1,3.42-5.36,41,41,0,0,1,4.2-4.85,23.3,23.3,0,0,1,5.33-3.79,11.13,11.13,0,0,1,6.57-1.14,6.92,6.92,0,0,1,1.67.47A6.43,6.43,0,0,1,253,300a6.77,6.77,0,0,1,2.09,2.64,9.45,9.45,0,0,1,.38,6.34,10.08,10.08,0,0,0-1.25-5.88,5.89,5.89,0,0,0-2-2,5.77,5.77,0,0,0-1.27-.56,5.24,5.24,0,0,0-1.36-.29,10,10,0,0,0-5.53,1.3,22.73,22.73,0,0,0-4.79,3.54,55.9,55.9,0,0,0-7.67,9.57C229.34,318.09,227.25,321.69,225.24,325.37Z"/><path d="M100.8,387.55a20.3,20.3,0,0,0,4.59.9,30.88,30.88,0,0,0,4.81,0,34,34,0,0,0,9.43-2.17c3.09-1.16,6.18-2.32,9.33-3.33a29.69,29.69,0,0,1,9.71-1.8,29.45,29.45,0,0,0-9.54,2.28c-3.08,1.16-6.1,2.46-9.12,3.78a35.74,35.74,0,0,1-9.66,2.74,33,33,0,0,1-5.07.22,22.66,22.66,0,0,1-5.14-.76Z"/><path d="M278.19,324.52c1-2.59,1.85-5.29,2.65-8s1.53-5.45,2.24-8.19q2.12-8.24,3.93-16.56c-.89,5.61-1.86,11.2-3,16.78-.54,2.79-1.12,5.57-1.76,8.35s-1.32,5.54-2.21,8.3Z"/><path class="cls-11" d="M109,389.31c1.39,1.41,7.36,1.68,9.88,6.64,2.81,5.51,9.49,8.8,26.29,11.11s30.88,3.11,51.47-4.74,38.24-18.8,53-35.36,19.24-34.66,29.51-42.08"/><path d="M278.44,324.15q8.88-6.19,17.71-12.47l8.78-6.33c1.45-1.07,2.9-2.14,4.33-3.24.7-.55,1.42-1.1,2.05-1.67a2.24,2.24,0,0,0,.36-.42l.3-.54c.18-.39.35-.79.5-1.21a93.91,93.91,0,0,0,2.89-10.37c.82-3.51,1.57-7,2.29-10.58,1.42-7.08,2.76-14.18,3.9-21.31-1,7.16-2.15,14.29-3.41,21.4-.64,3.56-1.3,7.11-2.05,10.65a93.87,93.87,0,0,1-2.68,10.56c-.15.43-.32.87-.51,1.3-.1.22-.23.44-.34.65a4.2,4.2,0,0,1-.5.63c-.7.65-1.4,1.21-2.1,1.8-1.42,1.13-2.85,2.24-4.28,3.35L297,312.89q-8.68,6.48-17.43,12.89Z"/><path class="cls-10" d="M467.45,692.89s20.19-18.28,28.86-36.17,9.75-88.86,10.56-100.78"/><path d="M226.85,561.91a99.55,99.55,0,0,0,13.22,4.67c4.51,1.29,9.09,2.36,13.71,3.25a119.47,119.47,0,0,0,14,1.89,59.21,59.21,0,0,0,7.05.11,22.38,22.38,0,0,0,6.92-1.26,22.62,22.62,0,0,1-6.9,1.51,60.06,60.06,0,0,1-7.1.14,119.48,119.48,0,0,1-14.12-1.4c-4.68-.73-9.33-1.65-13.93-2.79a100.88,100.88,0,0,1-13.62-4.29Z"/><path class="cls-10" d="M59,506.35s13.41,34.55,19.91,48.77,12.6,24.79,21.13,18.29c0,0-6.09-9.75,4.47-27.23s27.23-24.38,50.4-28.45,56.9,16.67,56.9,16.67,2.84,21.52,14.63,28.43"/><line class="cls-10" x1="100.06" y1="573.41" x2="117.54" y2="607.96"/><line class="cls-10" x1="226.46" y1="562.83" x2="241.9" y2="605.92"/><path class="cls-10" d="M211.83,534.4s-2.71-22.49-10-37.93"/><path d="M260.19,507.57c-5.19-.08-10.39-.07-15.59-.23-5.17-.45-10.35-.93-15.51-1.58-2.59-.33-5.17-.69-7.74-1.15a50.68,50.68,0,0,1-7.71-1.89c-2.45-.89-4.89-1.81-7.31-2.87a36.89,36.89,0,0,1-7-3.89,50,50,0,0,1-5.89-5.3,62.94,62.94,0,0,1-5.35-5.8,35.58,35.58,0,0,1-6.74-14.35,83.72,83.72,0,0,1-1.69-15.64c.19-5.22.53-10.42,1.23-15.57.1,5.19.29,10.37.77,15.51a82.2,82.2,0,0,0,1.64,15.25,33.48,33.48,0,0,0,6.37,13.56,59.34,59.34,0,0,0,5.18,5.62,47.94,47.94,0,0,0,5.65,5.1c4,3,8.94,4.71,13.77,6.5a49.39,49.39,0,0,0,7.38,1.8c2.52.45,5.08.81,7.64,1.13,5.12.64,10.27,1.14,15.43,1.56C249.9,506.08,255.06,506.66,260.19,507.57Z"/><path d="M322.37,451.9q9-1.15,17.94-2.5c3-.49,5.93-1,8.86-1.59a42.53,42.53,0,0,0,8.44-2.49,5.89,5.89,0,0,0,1.71-1,11.38,11.38,0,0,0,1.45-1.49,24.81,24.81,0,0,0,2.42-3.62,65.59,65.59,0,0,0,3.77-8.09c1.1-2.78,2.12-5.62,3.07-8.47s1.85-5.75,2.73-8.64a107.34,107.34,0,0,1-4.33,17.66,57.86,57.86,0,0,1-3.59,8.46,25.68,25.68,0,0,1-2.55,3.94,13.41,13.41,0,0,1-1.7,1.76,7.69,7.69,0,0,1-2.12,1.33,42,42,0,0,1-8.93,2.54c-3,.54-6,1-9,1.29A171.93,171.93,0,0,1,322.37,451.9Z"/><path d="M218.33,446.61a167.8,167.8,0,0,1-16.77-.81c-2.79-.27-5.57-.61-8.35-1.07a58.93,58.93,0,0,1-8.29-1.86,16.82,16.82,0,0,1-4.07-1.77,13.54,13.54,0,0,1-3.21-3.15,33.48,33.48,0,0,1-4.07-7.55,71.48,71.48,0,0,1-4.21-16.3c.82,2.68,1.65,5.34,2.62,7.95s1.94,5.2,3.1,7.69a36.41,36.41,0,0,0,4.09,7,11.65,11.65,0,0,0,2.77,2.67,16.68,16.68,0,0,0,3.58,1.56,118.62,118.62,0,0,0,16.22,3.33Q210,445.56,218.33,446.61Z"/><path class="cls-12" d="M211.55,307.76s3.26,17.88,3.26,19.51-8.62,11.15-9.49,12.19c-1.35,1.62-7-2.91-9.82,2.57"/><path class="cls-11" d="M122.82,678.67s19.92,72.88,22.08,78,10.3,19.23,27.91,19.23,200.22-3.79,205.91-3.79,22.49-5.42,26.28-17.61,7.59-23.57,8.81-27.09"/><path class="cls-11" d="M79.34,755.07s1.08,7,2.71,8.13,25.19,2.44,31.15.81,7.32-17.34,5.69-20.59"/><path class="cls-11" d="M85.43,733.94s5.83,5.69,7.45,7,24.12,4.07,29,2.17,9.76-17.88,10-20.86S114,698.72,109.82,694.52"/><line class="cls-11" x1="131.9" y1="722.29" x2="134.07" y2="720.12"/><path class="cls-11" d="M473.55,706.71s-16,9.62-19,15-5.69,8.67-5.14,11.38,9.75,16.25,11.37,18.15,13.82-.27,16.53-.54,15.72-6.23,15.72-6.23"/><path class="cls-11" d="M465,752.23s4.27,13.21,6.51,14.43,21.94.81,24.79.6a10.51,10.51,0,0,0,6.91-3.65"/><path class="cls-11" d="M454.58,721.75s-5.62.61-7,.61-4.67-7.52-4.67-7.52"/><path d="M268.64,108.84A49.46,49.46,0,0,1,268,117a25.49,25.49,0,0,1-1,4,11.2,11.2,0,0,1-2,3.69,54.3,54.3,0,0,1-5.81,5.65q-3,2.64-6.23,5.08c2-1.76,4-3.58,5.89-5.45a54,54,0,0,0,5.36-5.89c1.51-2,2-4.71,2.27-7.29a47,47,0,0,0,.11-7.87Z"/><path class="cls-10" d="M190.9,127.59s-10.5,3-19.71-.27a69,69,0,0,1-17-9.28"/><line class="cls-10" x1="140.4" y1="111.43" x2="98.13" y2="83.7"/><path class="cls-11" d="M83.3,79.73a177,177,0,0,0-20.83-.4,31.28,31.28,0,0,1,7.62,3.55c3.46,2.34,13.52,12.3,13.52,12.3"/><line class="cls-11" x1="109.82" y1="110.72" x2="135.83" y2="131.85"/><path class="cls-11" d="M62.47,79.33s-1.83,1.93,2.64,18.59S80.56,148.72,83,151.56s6.9,2,6.9,2"/><rect class="cls-13" x="312.06" y="444.12" width="77.42" height="75.38" rx="13.23" transform="translate(244.41 -104.59) rotate(25.77)"/><path d="M395.56,478c-2,4.63-4.09,9.2-6.18,13.77s-4.27,9.11-6.47,13.63-4.42,9-6.63,13.54c-1.86,4.74-6.47,9.55-12.5,9.65l.22,0a10.58,10.58,0,0,1-4-.31,19.53,19.53,0,0,1-3.54-1.24c-2.1-1-4.22-2-6.3-3-4.19-2-8.39-4-12.55-6.1s-8.32-4.16-12.47-6.27-8.26-4.28-12.33-6.54c4.35,1.67,8.64,3.44,12.94,5.22s8.57,3.61,12.82,5.47,8.5,3.76,12.75,5.65c2.12.93,4.22,1.92,6.34,2.88a12.11,12.11,0,0,0,5.92,1.28l.1,0h.12a9.85,9.85,0,0,0,5.93-2.37,12.15,12.15,0,0,0,2.29-2.46,11.36,11.36,0,0,0,.85-1.44l.87-1.68c2.36-4.44,4.67-8.91,7.08-13.32s4.8-8.84,7.24-13.24S393,482.3,395.56,478Z"/><path class="cls-14" d="M340.78,454.33a54.64,54.64,0,0,1,8.35,3.26c4.15,2,6.72,4.44,7.81,7.11a9.72,9.72,0,0,1-.43,8.17,10.63,10.63,0,0,1-5.87,5.73c-3.35,1.29-7.55.75-11.65-1.23a15.48,15.48,0,0,1-3.23-1.92l-6.29,13-4.2-2ZM337.41,472a15.53,15.53,0,0,0,3.31,2c5.06,2.45,9.33,1.48,11.5-3,2.07-4.29,0-7.83-4.59-10.06a19.15,19.15,0,0,0-4.12-1.57Z"/><path class="cls-14" d="M354.15,501.93a13.16,13.16,0,0,1-5.16-4.34l-.31-.54,3-3.25.6.93a10.06,10.06,0,0,0,3.92,3.48c2.32,1.12,4.23.71,5.1-1.1.67-1.37.58-2.67-1.82-5.23a12.93,12.93,0,0,1-3.18-4.67,6.44,6.44,0,0,1,.31-5.07,6.77,6.77,0,0,1,4.45-3.69,9.21,9.21,0,0,1,6.39.83,11.39,11.39,0,0,1,4.55,3.61l.4.57-3.05,3.11-.58-.82A8.5,8.5,0,0,0,365.5,483c-2.41-1.16-3.9-.26-4.44.87-.73,1.49-.23,2.71,2.11,5.22a12.47,12.47,0,0,1,3.08,4.8,6.79,6.79,0,0,1-.51,5.06,7.23,7.23,0,0,1-4.46,3.87A10,10,0,0,1,354.15,501.93Z"/><rect class="cls-13" x="172.59" y="486.18" width="94.68" height="92.18" rx="16.18" transform="translate(-119.45 66.97) rotate(-13.66)"/><path class="cls-15" d="M200.6,514.07l.52,2.28-3.86,40.28a.31.31,0,0,0,.38.33l7.74-1.88a.3.3,0,0,0,.23-.28l.66-9.68a.32.32,0,0,1,.23-.28l13.84-3.36a.3.3,0,0,1,.32.13l5.33,8.25a.3.3,0,0,0,.33.13l8.47-2.06a.3.3,0,0,0,.18-.46L211.24,511.3a.3.3,0,0,0-.32-.13l-9.35,2.29-.69.17A.37.37,0,0,0,200.6,514.07Zm6.12,22.09.76-15.81a.31.31,0,0,1,.57-.15l8.15,13.65a.31.31,0,0,1-.19.46l-8.91,2.16A.3.3,0,0,1,206.72,536.16Z"/><path class="cls-15" d="M239.25,546.5l-7.15-29.43a.59.59,0,0,1,.43-.72l7.3-1.77a.58.58,0,0,1,.71.43l7.16,29.44a.6.6,0,0,1-.44.71l-7.3,1.77A.58.58,0,0,1,239.25,546.5Z"/><circle class="cls-15" cx="234.24" cy="507.48" r="4.98"/><path d="M260.26,569.81c-11.61,3.2-23.28,6.1-35,8.91-5.84,1.43-11.7,2.75-17.56,4.12l-4.39,1c-.73.16-1.47.34-2.28.5a19.64,19.64,0,0,1-2.43.28,18.19,18.19,0,0,1-9.46-2.12,18.44,18.44,0,0,1-7-6.71,18.12,18.12,0,0,1-1.91-4.49l-1.11-4.42c-1.41-5.84-2.88-11.68-4.23-17.54-2.78-11.7-5.44-23.43-7.82-35.24,3.58,11.5,6.88,23.07,10.08,34.67,1.63,5.8,3.15,11.62,4.72,17.42l1.14,4.32a15.29,15.29,0,0,0,7.55,9.35,15.28,15.28,0,0,0,7.92,1.83,21.7,21.7,0,0,0,4.18-.67l4.41-.95c5.9-1.21,11.78-2.48,17.68-3.64C236.56,574.06,248.38,571.79,260.26,569.81Z"/><rect class="cls-13" x="238.65" y="388" width="63.08" height="61.41" rx="10.78" transform="translate(-98.31 83.26) rotate(-14.85)"/><path class="cls-16" d="M264.61,434.94,260,436.16l-7.5-28.28,4.61-1.22Z"/><path class="cls-16" d="M277.13,432.09c-5.16,1.37-10.07-2-11.67-8.11a12.1,12.1,0,0,1,.84-9.25,9,9,0,0,1,5.53-4.25,7.87,7.87,0,0,1,5.95.59L275,400.38l4.64-1.23L286,423.28c.32,1.22.94,3.48,1.48,5l.21.59L283.38,430l-.73-2.31A8.34,8.34,0,0,1,277.13,432.09Zm-3.59-17.91c-3.21.86-4.57,4.15-3.44,8.4.82,3.08,3.14,6.3,7,5.28a5,5,0,0,0,3.65-5.05,5.67,5.67,0,0,0-.23-1.44l-.89-3.39a5.8,5.8,0,0,0-.5-1.3A4.84,4.84,0,0,0,273.54,414.18Z"/><path d="M295.33,390.89c2.61,7.73,4.94,15.53,7.17,23.35,1.14,3.9,2.18,7.83,3.26,11.75l.8,3a11.53,11.53,0,0,1,.39,3.42,12.72,12.72,0,0,1-2,6.51,16.61,16.61,0,0,1-1,1.39,12.25,12.25,0,0,1-1.29,1.23,13.52,13.52,0,0,1-2.93,1.81,12.37,12.37,0,0,1-1.65.56l-1.47.4-2.95.81c-3.94,1-7.86,2.09-11.81,3-7.89,2-15.82,3.87-23.82,5.46,7.66-2.81,15.41-5.33,23.19-7.74,3.88-1.23,7.79-2.36,11.69-3.54l2.93-.84,1.47-.42a8.82,8.82,0,0,0,1.23-.43,10.39,10.39,0,0,0,2.24-1.41,8.51,8.51,0,0,0,.91-.88,11.3,11.3,0,0,0,.77-1.07,9.9,9.9,0,0,0,1.61-5,9.31,9.31,0,0,0-.27-2.62l-.72-2.93c-.94-4-1.91-7.92-2.79-11.9C298.45,406.89,296.74,398.92,295.33,390.89Z"/><g class="cls-17"><path class="cls-18" d="M444.2,626.32l-.32,1.14S444,627,444.2,626.32Z"/><path class="cls-19" d="M415.84,721.34l126-258.88H5.37l128.29,258.2s-28.58-95.09-28-101c0-.35,0-.72,0-1.12.45-4.66,4.48-7,8.63-8.91a21.24,21.24,0,0,1,9.35-1.63s288.14-3.25,293-3.65,12.19.4,22.76,2c4.72.73,6.11,5,6.21,9.56a21.4,21.4,0,0,0-.13,3.38,44.75,44.75,0,0,1-1.29,7.05l.23-.8C439.09,647.63,415.84,721.34,415.84,721.34Z"/></g><path class="cls-11" d="M114.7,248.49a13.83,13.83,0,0,0-7.73,6.3c-4.49,8.35-1.22,16.66,1.22,21.13s-2.84,17.89-7.31,26S81.37,319.82,83,324.29s10.16,28.85,10.16,28.85-7.73,2.44-6.91,11.79,4.47,10.56,4.47,10.56,2.44,9.76,9.75,13c0,0-50.39,81.28-50,89.41S59,506.35,59,506.35,41.54,513.67,34.63,536s-14.22,60.56-4.06,87,37.8,54,37.8,54-1.63,42.27-2,49.18,13,28.85,13,28.85-3.25-12.6,6.09-21.13c0,0-2.84-8.94-1.62-16.26s12.6-21.94,16.66-23.57,9.35.41,9.35.41.4-7.72,2.44-9.35,10.56-6.5,10.56-6.5-15-49.58-16.66-58.12S113.07,608.77,120,608s252.37-2.85,280-3.26,38.2.82,41.45,2,6.51,4.47,2.44,20.72-30.07,100-30.07,100S429.66,727,446.32,712s21.13-19.1,21.13-19.1,10.16,5.56,6.1,13.82a14,14,0,0,1,8.53-.41c5.63,1.82,8.94,5.69,13,13.82s7.31,14.23,4.47,18.29a22.11,22.11,0,0,1-6.5,6.1s1.62-2.44,6.5,2.43,6.91,11.38,3.66,16.67c0,0,5.28-3.25,9.75-18.7s6.91-30.88,4.88-36.57-5.69-17.48-5.69-17.48,21.54-25.6,26.82-37,8.53-8.54,2-41.45-8.94-43.08-15.44-47.55-18.7-8.94-18.7-8.94,1.63-15-3.25-39.43a254.94,254.94,0,0,0-11.78-41.45s3.38-30.48,2.3-37.79c-1.15-7.73-124.09-198.33-126.8-199.41s-11.92-3.8-11.92-3.8l-.54-3.79c-3.25-14.63-20.05-47.68-28.18-61.77s-35.9-44.16-38.06-50.67S284,58,286.2,53.62s29.12-39.55,29.12-39.55c-8.13,5.41-40.64,32.51-42.26,37.38s-5.42,57.44-5.42,57.44-8.67-16.8-28.72-19-32,9.21-42.81,28.17-23.91,47.69-23.91,47.69"/></svg>